# xmcd
#
# Track frame offsets: 
#        150
#        11877
#        26127
#        40016
#        52730
#        67109
#        80941
#        93895
#        104259
#        117144
#        130415
#        144265
#        157722
#        168738
#        181586
#        192911
#        207021
#        220629
#        233965
#        245364
#        257482
#        270490
#        283660
#        296895
#        307898
#        321096
#
# Disc length: 4476 seconds
#
# Revision: 0
# Processed by: cddbd v1.5.2PL0 Copyright (c) Steve Scherf et al.
# Submitted via: ExactAudioCopyFreeDBPlugin 1.0
#
DISCID=6b117a1a
DTITLE=Muddy Waters - Natural Born Lover: The Singles As and Bs 1953-196
DTITLE=0
DYEAR=2010
DGENRE=Blues
TTITLE0=She's All Right
TTITLE1=Sad Sad Day
TTITLE2=Who's Gonna Be Your Sweet Man
TTITLE3=Turn The Lamp Down Low (Baby Please Don't Go)
TTITLE4=Blow Wind Blow
TTITLE5=Mad Love
TTITLE6=I'm Your Hoochie Coochie Man
TTITLE7=She's So Pretty
TTITLE8=I Just Want To Make Love To You
TTITLE9=Oh Yeah
TTITLE10=I'm Ready
TTITLE11=I Don't Know Why
TTITLE12=Lovin' Man
TTITLE13=I'm A Natural Born Lover
TTITLE14=I Want To Be Loved
TTITLE15=My Eyes Keep Me In Trouble
TTITLE16=Young Fashioned Ways
TTITLE17=Manish Boy
TTITLE18=Sugar Sweet
TTITLE19=Trouble No More
TTITLE20=Forty Days And Forty Nights
TTITLE21=All Aboard
TTITLE22=Don't Go No Further
TTITLE23=Diamonds At Your Feet
TTITLE24=I Got To Find My Baby
TTITLE25=Just To Be With You
EXTD=
EXTT0=
EXTT1=
EXTT2=
EXTT3=
EXTT4=
EXTT5=
EXTT6=
EXTT7=
EXTT8=
EXTT9=
EXTT10=
EXTT11=
EXTT12=
EXTT13=
EXTT14=
EXTT15=
EXTT16=
EXTT17=
EXTT18=
EXTT19=
EXTT20=
EXTT21=
EXTT22=
EXTT23=
EXTT24=
EXTT25=
PLAYORDER=
